<?xml version="1.0" standalone="no"?>
<!DOCTYPE svg PUBLIC "-//W3C//DTD SVG 20010904//EN"
 "http://www.w3.org/TR/2001/REC-SVG-20010904/DTD/svg10.dtd">
<svg version="1.0" xmlns="http://www.w3.org/2000/svg"
 width="700.000000pt" height="700.000000pt" viewBox="0 0 700.000000 700.000000"
 preserveAspectRatio="xMidYMid meet">
<metadata>
Created by potrace 1.11, written by Peter Selinger 2001-2013
</metadata>
<g transform="translate(0.000000,700.000000) scale(0.100000,-0.100000)"
fill="#000000" stroke="none">
<path d="M0 3500 l0 -3500 3495 0 3495 0 0 3500 0 3500 -3495 0 -3495 0 0
-3500z m3815 2527 c322 -53 613 -175 870 -367 445 -332 709 -817 751 -1377 l7
-93 -266 0 -265 0 -7 68 c-27 294 -104 505 -263 719 -337 453 -928 660 -1487
522 -460 -115 -837 -453 -983 -884 -72 -211 -66 -51 -70 -1955 l-3 -1715 -264
270 -265 270 0 1419 c0 1540 -1 1502 55 1727 134 529 531 1000 1041 1234 174
80 391 144 559 164 50 6 101 13 115 15 51 9 388 -3 475 -17z m761 -3786 c247
-238 450 -436 452 -440 1 -4 -95 -45 -215 -91 -120 -45 -239 -91 -264 -101
l-47 -18 -377 363 c-208 200 -376 367 -374 372 7 17 361 355 369 352 4 -2 209
-198 456 -437z"/>
</g>
</svg>
