<?xml version="1.0" encoding="utf-8"?>
<!-- Generator: Adobe Illustrator 18.0.0, SVG Export Plug-In . SVG Version: 6.00 Build 0)  -->
<!DOCTYPE svg PUBLIC "-//W3C//DTD SVG 1.1//EN" "http://www.w3.org/Graphics/SVG/1.1/DTD/svg11.dtd">
<svg version="1.1" id="Layer_1" xmlns="http://www.w3.org/2000/svg" xmlns:xlink="http://www.w3.org/1999/xlink" x="0px" y="0px"
	 viewBox="0 0 500 500" enable-background="new 0 0 500 500" xml:space="preserve">
<rect x="-2" y="-2" fill="#F04841" width="504" height="504"/>
<g>
	<g>
		<path fill="#FFFFFF" d="M317.8,321.6l-38.7-37.3l-15.7,15.2l31.9,30.8C303.1,328.1,310.7,325.2,317.8,321.6"/>
		<path fill="#FFFFFF" d="M172,221.1v113.2l22.2,22.9V221.1c0-31.4,26.5-56.9,59-56.9c32.5,0,59,25.5,59,56.9h22.2
			c0-43.2-36.4-78.4-81.2-78.4C208.4,142.8,172,177.9,172,221.1"/>
	</g>
	<path fill="none" stroke="#FFFFFF" stroke-width="21.615" stroke-miterlimit="10" d="M418.8,250c0,93.3-75.6,168.8-168.8,168.8
		c-93.3,0-168.8-75.6-168.8-168.8c0-93.2,75.6-168.8,168.8-168.8C343.3,81.2,418.8,156.8,418.8,250z"/>
</g>
</svg>
