<?xml version="1.0" encoding="utf-8"?>
<!-- Generator: Adobe Illustrator 18.0.0, SVG Export Plug-In . SVG Version: 6.00 Build 0)  -->
<!DOCTYPE svg PUBLIC "-//W3C//DTD SVG 1.1//EN" "http://www.w3.org/Graphics/SVG/1.1/DTD/svg11.dtd">
<svg version="1.1" id="github" xmlns="http://www.w3.org/2000/svg" xmlns:xlink="http://www.w3.org/1999/xlink" x="0px" y="0px"
	 viewBox="862.7 629.2 10.9 10.6" enable-background="new 862.7 629.2 10.9 10.6" xml:space="preserve">
<path fill="#1D1D1B" d="M869.7,639.9v-1.9c0-0.5-0.2-0.8-0.6-1.1c1.9-0.2,2.8-0.8,2.8-2.6c0-0.7-0.2-1.2-0.6-1.7
	c0.1-0.2,0.1-0.5,0.1-0.7c0-0.3-0.1-0.6-0.2-0.9c-0.6,0-1.1,0.2-1.7,0.7c-0.4-0.1-0.8-0.1-1.3-0.1c-0.5,0-1,0.1-1.4,0.2
	c-0.6-0.5-1.1-0.7-1.7-0.7c-0.2,0.3-0.2,0.6-0.2,0.9c0,0.2,0,0.5,0.1,0.7c-0.4,0.5-0.6,1-0.6,1.7c0,1.8,0.9,2.4,2.8,2.6
	c-0.3,0.2-0.4,0.4-0.5,0.8c-0.2,0.1-0.5,0.1-0.7,0.1c-0.2,0-0.3,0-0.5-0.1c-0.3-0.2-0.4-0.4-0.6-0.7c-0.2-0.2-0.4-0.4-0.8-0.4
	c-0.2,0-0.2,0-0.2,0.1c0,0,0,0.1,0.1,0.1c0.1,0.1,0.1,0.1,0.2,0.2c0.1,0.1,0.2,0.1,0.2,0.2c0.1,0.1,0.2,0.3,0.3,0.5
	c0.2,0.6,0.7,0.9,1.3,0.9c0.1,0,0.3,0,0.6-0.1v1.4c-2.3-0.7-3.8-2.8-3.8-5.2c0-1.5,0.6-2.9,1.6-3.8c1-1,2.4-1.6,3.8-1.6
	c1.5,0,2.9,0.6,3.8,1.6c1,1,1.6,2.4,1.6,3.8C873.5,637,872,639.2,869.7,639.9z"/>
</svg>
