<?xml version="1.0" encoding="utf-8"?>
<!-- Generator: Adobe Illustrator 18.0.0, SVG Export Plug-In . SVG Version: 6.00 Build 0)  -->
<!DOCTYPE svg PUBLIC "-//W3C//DTD SVG 1.1//EN" "http://www.w3.org/Graphics/SVG/1.1/DTD/svg11.dtd">
<svg version="1.1" id="Isolation_Mode" xmlns="http://www.w3.org/2000/svg" xmlns:xlink="http://www.w3.org/1999/xlink" x="0px"
	 y="0px" viewBox="862.6 628 11 11" enable-background="new 862.6 628 11 11" xml:space="preserve">
<path fill="#1D1D1B" d="M862.6,629.3c0-0.7,0.6-1.3,1.3-1.3c0.7,0,1.3,0.6,1.3,1.3c0,0.4-0.1,0.7-0.4,0.9c-0.2,0.3-0.6,0.4-0.9,0.4
	C863.2,630.6,862.6,630,862.6,629.3z M865,631.4H863c-0.2,0-0.3,0.2-0.3,0.3v6.9c0,0.2,0.2,0.3,0.3,0.3h2.1c0.2,0,0.3-0.2,0.3-0.3
	v-6.9C865.4,631.6,865.2,631.4,865,631.4z M870.7,631.2c-0.6,0-1.2,0.2-1.7,0.5c-0.1,0.1-0.1,0.1-0.1,0.1c0-0.3-0.1-0.4-0.4-0.4
	h-1.9c-0.2,0-0.5,0.1-0.5,0.3v6.9c0,0.2,0.3,0.3,0.5,0.3h2c0.2,0,0.3-0.2,0.3-0.3v-3.8c0-1,0.4-1.5,1.2-1.5c0.7,0,0.8,0.3,0.8,1v4.2
	c0,0.2,0.2,0.3,0.4,0.3h2c0.2,0,0.3-0.2,0.3-0.3v-4.7C873.6,632.1,872.5,631.2,870.7,631.2z"/>
</svg>
