<?xml version="1.0" encoding="utf-8"?>
<!-- Generator: Adobe Illustrator 18.0.0, SVG Export Plug-In . SVG Version: 6.00 Build 0)  -->
<!DOCTYPE svg PUBLIC "-//W3C//DTD SVG 1.1//EN" "http://www.w3.org/Graphics/SVG/1.1/DTD/svg11.dtd">
<svg version="1.1" id="Layer_2" xmlns="http://www.w3.org/2000/svg" xmlns:xlink="http://www.w3.org/1999/xlink" x="0px" y="0px"
	 viewBox="0 0 79 79" enable-background="new 0 0 79 79" xml:space="preserve">
<path fill="#F04941" d="M39.5,79C17.7,79,0,61.2,0,39.5C0,17.7,17.7,0,39.5,0C61.2,0,79,17.7,79,39.5C79,61.2,61.2,79,39.5,79z
	 M39.5,4.7C20.3,4.7,4.7,20.3,4.7,39.5s15.6,34.7,34.7,34.7c19.1,0,34.7-15.6,34.7-34.7S58.6,4.7,39.5,4.7z M54.4,55.2L45.9,47
	l-3.5,3.3l7,6.8C51.2,56.6,52.8,56,54.4,55.2z M22.3,33.1V58l4.9,5V33.1c0-6.9,5.8-12.5,13-12.5c7.1,0,13,5.6,13,12.5H58
	c0-9.5-8-17.2-17.8-17.2S22.3,23.6,22.3,33.1z"/>
</svg>
